<?xml version="1.0" standalone="no"?>
<!DOCTYPE svg PUBLIC "-//W3C//DTD SVG 20010904//EN"
 "http://www.w3.org/TR/2001/REC-SVG-20010904/DTD/svg10.dtd">
<svg version="1.0" xmlns="http://www.w3.org/2000/svg"
 width="500.000000pt" height="500.000000pt" viewBox="0 0 500.000000 500.000000"
 preserveAspectRatio="xMidYMid meet">
<metadata>
Created by potrace 1.14, written by Peter Selinger 2001-2017
</metadata>
<g transform="translate(0.000000,500.000000) scale(0.100000,-0.100000)"
fill="#000000" stroke="none">
<path d="M2182 4204 c-202 -25 -401 -85 -592 -177 -69 -33 -144 -73 -167 -88
-23 -16 -45 -29 -49 -29 -4 0 -16 -8 -27 -17 -19 -17 -20 -17 -36 7 -75 115
-188 168 -297 141 -54 -14 -134 -65 -134 -86 0 -8 -4 -15 -10 -15 -5 0 -10 -6
-10 -12 -1 -31 -15 -39 -46 -24 -39 19 -82 25 -119 15 -40 -11 -93 -64 -103
-102 -8 -30 -10 -31 -54 -28 -124 7 -228 -118 -189 -230 13 -37 12 -38 -25
-45 -51 -9 -121 -45 -153 -78 -78 -81 -46 -198 67 -248 38 -16 60 -19 121 -15
40 3 78 10 84 16 15 15 47 14 47 -2 0 -8 11 -24 24 -36 33 -31 104 -39 150
-17 46 22 50 20 26 -11 -24 -34 -100 -238 -130 -348 -43 -163 -60 -316 -56
-515 4 -197 6 -212 36 -362 41 -198 129 -419 242 -607 28 -47 55 -90 59 -96
114 -146 157 -196 238 -275 291 -285 683 -477 1088 -534 158 -22 409 -18 557
8 11 2 41 7 66 11 25 3 59 11 75 16 17 5 64 18 105 30 234 65 514 216 710 384
63 53 191 188 252 264 50 63 78 103 155 226 52 83 135 274 179 415 23 73 28
96 41 170 3 19 9 42 14 51 20 39 -7 23 -51 -29 -105 -126 -249 -238 -400 -312
-58 -28 -113 -55 -122 -60 -27 -15 -38 -12 -38 10 0 24 -37 42 -62 29 -22 -12
-24 -11 -26 4 0 6 -5 28 -10 47 -8 33 -9 319 -1 348 2 8 19 29 37 48 17 19 32
41 32 48 0 8 4 16 8 18 24 10 119 259 106 279 -3 5 -2 9 3 9 18 0 4 119 -20
165 -19 36 -27 120 -15 153 4 13 10 76 13 139 5 106 8 118 31 146 14 17 30 42
35 55 6 15 13 21 21 16 9 -5 9 -2 -1 9 -16 20 -2 23 19 5 8 -7 7 -4 -3 8 -22
26 -22 38 1 29 13 -5 14 -3 6 5 -13 13 -7 50 8 50 5 0 2 7 -6 16 -9 8 -16 21
-16 29 0 7 -6 15 -12 17 -7 3 -13 13 -13 24 0 16 -8 19 -45 21 -25 2 -67 8
-95 14 -86 21 -141 8 -227 -52 l-26 -19 -23 32 c-51 73 -64 73 -60 2 l2 -45
-38 23 c-21 13 -50 29 -65 35 -37 16 -43 -4 -18 -59 11 -24 20 -53 20 -65 0
-13 4 -23 8 -23 5 0 9 -6 9 -12 0 -7 4 -33 8 -58 15 -86 9 -202 -14 -262 -5
-14 -7 -29 -4 -32 4 -3 1 -6 -5 -6 -7 0 -11 -4 -10 -8 5 -14 -45 -80 -69 -93
-13 -7 -23 -17 -23 -23 0 -7 -29 -11 -78 -11 -61 0 -87 -5 -126 -24 -117 -58
-194 -168 -242 -349 -35 -135 -39 -347 -9 -575 2 -19 -3 -31 -17 -42 -19 -13
-26 -11 -67 12 -166 95 -332 254 -444 425 -87 132 -163 329 -191 493 -18 106
-18 309 1 420 8 50 15 99 16 110 2 19 4 19 81 -7 85 -28 195 -35 278 -17 71
16 160 63 218 115 46 42 65 52 119 63 82 16 149 50 189 96 76 86 11 173 -122
162 -34 -3 -69 -9 -78 -12 -13 -5 -18 -2 -19 11 -3 101 -10 122 -53 187 -23
33 -92 83 -129 93 -15 3 -27 9 -27 13 0 14 161 113 261 160 116 55 225 88 352
107 26 3 47 9 47 13 0 18 -286 100 -405 117 -27 3 -59 9 -70 11 -48 12 -377
10 -473 -3z"/>
<path d="M3930 3180 c-23 -7 -23 -8 -3 -9 12 -1 25 4 28 9 3 6 5 10 3 9 -2 -1
-14 -5 -28 -9z"/>
<path d="M3978 3143 c7 -3 16 -2 19 1 4 3 -2 6 -13 5 -11 0 -14 -3 -6 -6z"/>
<path d="M3897 3098 c7 -8 9 -18 5 -22 -4 -4 -2 -7 3 -6 19 4 36 0 32 -7 -3
-5 14 -8 37 -9 l41 -1 -36 11 c-19 6 -49 20 -65 30 -19 13 -25 14 -17 4z"/>
<path d="M3880 3049 c26 -17 70 -40 70 -35 0 5 -69 46 -78 46 -4 0 0 -5 8 -11z"/>
<path d="M4028 3053 c7 -3 16 -2 19 1 4 3 -2 6 -13 5 -11 0 -14 -3 -6 -6z"/>
<path d="M3975 3000 c27 -12 43 -12 25 0 -8 5 -22 9 -30 9 -10 0 -8 -3 5 -9z"/>
</g>
</svg>
